<?xml version="1.0" encoding="utf-8"?>
<!-- Generated by IcoMoon.io -->
<!DOCTYPE svg PUBLIC "-//W3C//DTD SVG 1.1//EN" "http://www.w3.org/Graphics/SVG/1.1/DTD/svg11.dtd">
<svg version="1.1" xmlns="http://www.w3.org/2000/svg" xmlns:xlink="http://www.w3.org/1999/xlink" width="72" height="72" viewBox="0 0 72 72">
<path d="M12 9h48q3.727 0 6.363 2.637t2.637 6.363v36q0 3.727-2.637 6.363t-6.363 2.637h-48q-3.727 0-6.363-2.637t-2.637-6.363v-36q0-3.727 2.637-6.363t6.363-2.637zM63 54v-32.766l-25.125 20.109q-0.797 0.656-1.875 0.656t-1.875-0.656l-25.125-20.109v32.766q0 1.242 0.879 2.121t2.121 0.879h48q1.242 0 2.121-0.879t0.879-2.121zM60 15h-48q-0.445 0-0.984 0.164l24.984 19.992 24.984-19.992q-0.539-0.164-0.984-0.164z"></path>
</svg>
