<?xml version="1.0" encoding="utf-8"?>
<!-- Generator: Adobe Illustrator 19.1.0, SVG Export Plug-In . SVG Version: 6.00 Build 0)  -->
<!DOCTYPE svg PUBLIC "-//W3C//DTD SVG 1.1//EN" "http://www.w3.org/Graphics/SVG/1.1/DTD/svg11.dtd">
<svg version="1.1" id="primary_Logo" xmlns="http://www.w3.org/2000/svg" xmlns:xlink="http://www.w3.org/1999/xlink" x="0px"
	 y="0px" viewBox="0 0 600 600" style="enable-background:new 0 0 600 600;" xml:space="preserve">
<g>
	<path d="M570,151.6L396.4,64.8c-0.8-0.4-1.6-0.6-2.5-0.6c-0.1,0-0.1,0-0.2,0c-2.1,0-4.2,1.1-5.3,2.9L281.4,241L400.8,435
		l170.8-277.6C572.9,155.4,572.1,152.7,570,151.6z"/>
	<polygon points="224.8,179.9 224.8,367.2 391.3,450.4 	"/>
	<path d="M405.9,457.6l152.9,76.5c8.3,4.2,15.2,0,15.2-9.4V184.5L405.9,457.6z"/>
	<path d="M206.4,152.5L46.3,72.4l-10.1-5.1c-1.5-0.7-2.8-1.1-4.1-1.1c-1.8,0-3.3,0.7-4.4,2c-1,1.3-1.7,3.1-1.7,5.3v365.5
		c0,6.2,4.6,13.6,10.1,16.4l157.4,78.7c2.2,1.1,4.3,1.6,6.2,1.6c5.3,0,9-4.1,9-11V156.1C208.7,154.6,207.8,153.2,206.4,152.5z"/>
</g>
</svg>
